# xmcd
#
# Track frame offsets:
#	150
#	39535
#	85189
#	110021
#	154771
#	193808
#	221823
#	246171
#	265745
#	290733
#	328675
#
# Disc length: 4577 seconds
#
# Revision: 0
# Processed by: cddbd v1.5.2PL0 Copyright (c) Steve Scherf et al.
# Submitted via: EZCDAudioConverter 1.3.4.1
#
DISCID=a711df0b
DTITLE=Various Artist - Nigeria Afrobeat Special
DYEAR=1900
DGENRE=
TTITLE0=Fela Ransome Kuti and The Africa 70 - Who're You? [Original 45 Version]
TTITLE1=Eric Showboy Akaeze and His Royal Ericos - We Dey Find Money
TTITLE2=Anansa Professionals - Enwan
TTITLE3=Saxon Lee and The Shadows International - Mind Your Business
TTITLE4=Bongos Ikwue and The Groovies - Otachikpokpo
TTITLE5=Orlando Julius and His Afro-Sounders - Afro-Blues
TTITLE6=Bob Ohiri and His Uhuru Sounds - Ariwo Yaa
TTITLE7=Madman Jaga - Hankuri
TTITLE8=Godwin Omabuwa and His Casanova Dandies - Do The Afro Shuffle
TTITLE9=Segun Bucknor's Revolution - Gbomojo
TTITLE10=Black Santiagos - Ole
EXTD=
EXTT0=
EXTT1=
EXTT2=
EXTT3=
EXTT4=
EXTT5=
EXTT6=
EXTT7=
EXTT8=
EXTT9=
EXTT10=
PLAYORDER=
